<svg xmlns="http://www.w3.org/2000/svg" xmlns:xlink="http://www.w3.org/1999/xlink" width="56" height="56" viewBox="0 0 56 56"><defs><style>.a{fill:#f83636;}.b{clip-path:url(#a);}</style><clipPath id="a"><rect class="a" width="56" height="56"/></clipPath></defs><g class="b"><g transform="translate(3.523)"><path class="a" d="M45.143,19.156a19.156,19.156,0,0,0-38.312,0C4.1,19.5,1.51,21.285,1.51,25.435v10c0,4.683,3.278,6.385,6.385,6.385h3.086a1.064,1.064,0,0,0,1.064-1.064v-20.6a1.064,1.064,0,0,0-1.064-1.064H8.959a17.028,17.028,0,1,1,34.055,0H40.993a1.064,1.064,0,0,0-1.064,1.064V40.728a1.064,1.064,0,0,0,1.064,1.064h2.022c-.3,7.311-3.81,9.025-10.823,9.333v-.713a2.128,2.128,0,0,0-2.128-2.128H23.369a2.128,2.128,0,0,0-2.128,2.128v3.459A2.128,2.128,0,0,0,23.369,56h6.715a2.128,2.128,0,0,0,2.128-2.128v-.617c6.747-.309,12.579-1.7,12.93-11.526,2.735-.341,5.321-2.128,5.321-6.279v-10C50.464,21.274,47.889,19.5,45.143,19.156ZM9.917,21.146V39.664H7.842c-1.575,0-4.257-.553-4.257-4.257v-10c0-3.672,2.65-4.257,4.257-4.257ZM30.084,52.265v1.618H23.369V50.423h6.715ZM48.336,35.439c0,3.672-2.65,4.257-4.257,4.257H42.057V21.221h2.075c1.575,0,4.257.553,4.257,4.257Z" transform="translate(-1.51)"/></g></g></svg>