<svg xmlns="http://www.w3.org/2000/svg" xmlns:xlink="http://www.w3.org/1999/xlink" width="56" height="56" viewBox="0 0 56 56"><defs><style>.a{fill:#f83636;}.b{clip-path:url(#a);}</style><clipPath id="a"><rect class="a" width="56" height="56"/></clipPath></defs><g class="b"><g transform="translate(0 1.717)"><path class="a" d="M54.087,38h-.15V9.761a2.463,2.463,0,0,0-2.46-2.46H48.518a12.92,12.92,0,0,0-22.5,0H23.054a2.463,2.463,0,0,0-2.46,2.46v3.715H12.77a4.645,4.645,0,0,0-3.5,1.6L3.611,21.564A5.74,5.74,0,0,0,2.2,25.334V38H1.913A1.916,1.916,0,0,0,0,39.914v5.017a1.916,1.916,0,0,0,1.913,1.913h4.1a7.276,7.276,0,0,0,14.46,0H34.788a7.278,7.278,0,0,0,10.836,5.5.82.82,0,0,0-.814-1.424,5.63,5.63,0,1,1,2.362-2.611.82.82,0,1,0,1.5.666,7.2,7.2,0,0,0,.578-2.134h4.838A1.916,1.916,0,0,0,56,44.931V39.914A1.916,1.916,0,0,0,54.087,38ZM22.235,9.761a.821.821,0,0,1,.82-.82h2.182a12.86,12.86,0,0,0-.893,4.721c0,1.989.961,4.643,2.856,7.89a.82.82,0,0,0,1.416-.827c-1.747-2.993-2.632-5.37-2.632-7.064a11.286,11.286,0,0,1,22.572,0c0,4.327-5.816,12.48-11.286,18.7a95.218,95.218,0,0,1-6.63-8.46.82.82,0,0,0-1.353.927,97.054,97.054,0,0,0,6.824,8.7,1.544,1.544,0,0,0,2.318,0C41.188,30.395,50.2,19.706,50.2,13.662A12.858,12.858,0,0,0,49.3,8.941h2.174a.821.821,0,0,1,.82.82V38H49.22a10.776,10.776,0,0,0-14.4,0H22.235ZM4.848,22.641,10.5,16.148a3.006,3.006,0,0,1,2.267-1.032h3.525V26.823H3.84V25.334a4.1,4.1,0,0,1,1.008-2.693ZM3.84,31.855H6.566a.786.786,0,0,1,.785.785v.343a.786.786,0,0,1-.785.785H3.84Zm0,3.553H6.566a2.428,2.428,0,0,0,2.425-2.425V32.64a2.428,2.428,0,0,0-2.425-2.425H3.84V28.463H16.568A1.368,1.368,0,0,0,17.934,27.1V15.116h2.66V38h-.153a10.776,10.776,0,0,0-14.4,0H3.84V35.407Zm50.52,9.523a.274.274,0,0,1-.273.273H49.248a7.276,7.276,0,0,0-14.46,0H20.47a7.281,7.281,0,0,0-9.985-5.918.82.82,0,1,0,.621,1.518,5.638,5.638,0,1,1-2.669,2.265.82.82,0,0,0-1.4-.861,7.253,7.253,0,0,0-1.033,3h-4.1a.274.274,0,0,1-.273-.273V39.914a.274.274,0,0,1,.273-.273H6.059a1.572,1.572,0,0,0,1.056-.4,9.136,9.136,0,0,1,12.249,0,1.571,1.571,0,0,0,1.056.4H34.838a1.572,1.572,0,0,0,1.056-.4,9.136,9.136,0,0,1,12.249,0,1.571,1.571,0,0,0,1.056.4h4.888a.274.274,0,0,1,.273.273v5.017Z" transform="translate(0 -0.736)"/><path class="a" d="M7.461,25.058a3.126,3.126,0,1,0-3.126-3.126A3.13,3.13,0,0,0,7.461,25.058Zm0-4.613a1.486,1.486,0,1,1-1.486,1.486A1.488,1.488,0,0,1,7.461,20.445Z" transform="translate(5.779 23.357)"/><path class="a" d="M16.668,21.932a3.126,3.126,0,1,0,3.126-3.126A3.13,3.13,0,0,0,16.668,21.932Zm4.613,0a1.486,1.486,0,1,1-1.486-1.486A1.488,1.488,0,0,1,21.28,21.932Z" transform="translate(22.224 23.357)"/><path class="a" d="M5.463,15.039H7.585a.82.82,0,0,0,0-1.64H5.463a.82.82,0,0,0,0,1.64Z" transform="translate(6.191 16.148)"/><path class="a" d="M19.337,15.223a5.888,5.888,0,1,0-5.889-5.889A5.9,5.9,0,0,0,19.337,15.223Zm0-10.137a4.248,4.248,0,1,1-4.248,4.248A4.253,4.253,0,0,1,19.337,5.086Z" transform="translate(17.932 2.877)"/></g></g></svg>