<svg xmlns="http://www.w3.org/2000/svg" xmlns:xlink="http://www.w3.org/1999/xlink" width="24" height="24" viewBox="0 0 24 24"><defs><style>.a{fill:#f83636;}.b{clip-path:url(#a);}</style><clipPath id="a"><rect class="a" width="24" height="24" transform="translate(-1453 -742)"/></clipPath></defs><g class="b" transform="translate(1453 742)"><g transform="translate(-1453 -742)"><path class="a" d="M22.769,4H1.231A1.234,1.234,0,0,0,0,5.231V18.769A1.234,1.234,0,0,0,1.231,20H22.769A1.234,1.234,0,0,0,24,18.769V5.231A1.234,1.234,0,0,0,22.769,4Zm-.462.923-9.6,7.2a1.287,1.287,0,0,1-1.416,0l-9.6-7.2ZM17.18,12.6,22.41,19.06c.005.006.012.011.017.017H1.572c.006-.006.012-.011.017-.017L6.82,12.6a.462.462,0,0,0-.718-.581l-5.18,6.4V5.5l9.815,7.362a2.2,2.2,0,0,0,2.523,0L23.077,5.5V18.416l-5.18-6.4a.462.462,0,0,0-.718.581Z"/></g></g></svg>