<svg xmlns="http://www.w3.org/2000/svg" xmlns:xlink="http://www.w3.org/1999/xlink" width="24" height="24" viewBox="0 0 24 24"><defs><style>.a{fill:#fff;}.b{clip-path:url(#a);}.c{fill:#4267b2;}</style><clipPath id="a"><rect class="a" width="24" height="24" transform="translate(-1095 259)"/></clipPath></defs><g class="b" transform="translate(1095 -259)"><g transform="translate(-1095 259)"><path class="c" d="M22.675,0H1.324A1.324,1.324,0,0,0,0,1.325V22.676A1.324,1.324,0,0,0,1.325,24h21.35A1.324,1.324,0,0,0,24,22.676h0V1.324A1.324,1.324,0,0,0,22.675,0Zm0,0"/><path class="a" d="M16.57,24V14.719H19.7l.469-3.633h-3.6V8.772c0-1.049.291-1.764,1.8-1.764h1.907V3.767a25.636,25.636,0,0,0-2.795-.143c-2.766,0-4.658,1.687-4.658,4.788v2.674H9.7v3.633H12.82V24Zm0,0"/></g></g></svg>