<svg xmlns="http://www.w3.org/2000/svg" xmlns:xlink="http://www.w3.org/1999/xlink" width="60" height="60" viewBox="0 0 60 60"><defs><style>.a,.e{fill:#fff;}.a{stroke:#707070;}.b{clip-path:url(#a);}.c{fill:#4a7aff;}.d{fill:#0053bf;}.f{fill:#dce1eb;}</style><clipPath id="a"><circle class="a" cx="30" cy="30" r="30" transform="translate(924 1430)"/></clipPath></defs><g class="b" transform="translate(-924 -1430)"><g transform="translate(924 1430)"><path class="c" d="M60,30A30,30,0,1,1,30,0,30,30,0,0,1,60,30Zm0,0"/><path class="d" d="M31.316,59.969A30,30,0,0,0,60,30c0-.117,0-.233,0-.35L39.171,8.826,16.906,32.1,29.277,44.469l-5.7,7.756Zm0,0"/><path class="e" d="M39.171,8.826v6.793s-7.8-1.132-7.8,3.9V24.55h7.045l-.88,7.673H31.372v20h-7.8v-20L16.905,32.1V24.55h6.541V18.764S23.015,10.155,31.5,8.574a22.665,22.665,0,0,1,7.673.251Zm0,0"/><path class="f" d="M39.171,15.619V8.826A22.665,22.665,0,0,0,31.5,8.574a11.894,11.894,0,0,0-1.539.392V52.225h1.414v-20h6.164l.881-7.673H31.372V19.519c0-5.032,7.8-3.9,7.8-3.9Zm0,0"/></g></g></svg>