<svg xmlns="http://www.w3.org/2000/svg" xmlns:xlink="http://www.w3.org/1999/xlink" width="60" height="60" viewBox="0 0 60 60"><defs><style>.a{fill:#fff;stroke:#707070;}.b{clip-path:url(#a);}.c{fill:#fbbd00;}.d{fill:#0f9d58;}.e{fill:#31aa52;}.f{fill:#3c79e6;}.g{fill:#cf2d48;}.h{fill:#eb4132;}</style><clipPath id="a"><circle class="a" cx="30" cy="30" r="30" transform="translate(832 1430)"/></clipPath></defs><g class="b" transform="translate(-832 -1430)"><g transform="translate(832 1430)"><path class="c" d="M14.063,30A15.84,15.84,0,0,1,16.3,21.858V11.744H6.19a30.015,30.015,0,0,0,0,36.512H16.3V38.142A15.84,15.84,0,0,1,14.063,30Z"/><path class="d" d="M30,45.938l-7.031,7.031L30,60a29.773,29.773,0,0,0,18.256-6.19v-10.1h-10.1A15.935,15.935,0,0,1,30,45.938Z"/><path class="e" d="M16.3,38.142,6.19,48.256a30.478,30.478,0,0,0,2.6,2.957A29.8,29.8,0,0,0,30,60V45.937a15.944,15.944,0,0,1-13.7-7.8Z"/><path class="f" d="M60,30a30.263,30.263,0,0,0-.491-5.435l-.264-1.441H30V37.186H44.233a15.865,15.865,0,0,1-6.08,6.52l10.1,10.1a30.478,30.478,0,0,0,2.957-2.6A29.8,29.8,0,0,0,60,30Z"/><path class="g" d="M41.27,18.73l1.243,1.243,9.944-9.944L51.213,8.787A29.8,29.8,0,0,0,30,0L22.969,7.031,30,14.062A15.834,15.834,0,0,1,41.27,18.73Z"/><path class="h" d="M30,14.063V0A29.8,29.8,0,0,0,8.787,8.787a30.451,30.451,0,0,0-2.6,2.957L16.3,21.858a15.944,15.944,0,0,1,13.7-7.8Z"/></g></g></svg>