<svg xmlns="http://www.w3.org/2000/svg" xmlns:xlink="http://www.w3.org/1999/xlink" width="24" height="24" viewBox="0 0 24 24"><defs><style>.a{fill:#fff;}.b{clip-path:url(#a);}.c{fill:url(#b);}.d{fill:url(#c);}.e{fill:url(#d);}.f{fill:url(#e);}.g{fill:url(#f);}.h{fill:url(#g);}.i{fill:url(#h);}.j{fill:url(#i);}</style><clipPath id="a"><rect class="a" width="24" height="24" transform="translate(-1010 259)"/></clipPath><radialGradient id="b" cx="0.205" cy="0.874" r="1.103" gradientTransform="translate(0)" gradientUnits="objectBoundingBox"><stop offset="0" stop-color="#fae100"/><stop offset="0.054" stop-color="#fadc04"/><stop offset="0.117" stop-color="#fbce0e"/><stop offset="0.183" stop-color="#fcb720"/><stop offset="0.251" stop-color="#fe9838"/><stop offset="0.305" stop-color="#ff7950"/><stop offset="0.492" stop-color="#ff1c74"/><stop offset="1" stop-color="#6c1cd1"/></radialGradient><linearGradient id="c" x1="0.369" y1="0.426" x2="-1.54" y2="-0.648" gradientUnits="objectBoundingBox"><stop offset="0" stop-color="#a1b5d8" stop-opacity="0"/><stop offset="0.309" stop-color="#90a2bd" stop-opacity="0.31"/><stop offset="0.755" stop-color="#7c8b9c" stop-opacity="0.757"/><stop offset="1" stop-color="#748290"/></linearGradient><linearGradient id="d" x1="0.5" y1="0.413" x2="0.5" y2="1.193" gradientUnits="objectBoundingBox"><stop offset="0" stop-color="#fae100" stop-opacity="0"/><stop offset="0.307" stop-color="#fca800" stop-opacity="0.306"/><stop offset="0.627" stop-color="#fe7300" stop-opacity="0.627"/><stop offset="0.868" stop-color="#ff5200" stop-opacity="0.867"/><stop offset="1" stop-color="#ff4500"/></linearGradient><linearGradient id="e" x1="0.316" y1="0.311" x2="0.012" y2="0.005" gradientUnits="objectBoundingBox"><stop offset="0" stop-color="#833ab4" stop-opacity="0"/><stop offset="1" stop-color="#833ab4"/></linearGradient><linearGradient id="f" x1="0.582" y1="0.887" x2="0.418" y2="0.113" xlink:href="#e"/><linearGradient id="g" x1="0.605" y1="0.605" x2="-0.16" y2="-0.16" xlink:href="#e"/><linearGradient id="h" x1="0.376" y1="0.332" x2="-0.072" y2="-0.063" xlink:href="#e"/><linearGradient id="i" x1="0.816" y1="0.182" x2="0.172" y2="0.835" gradientUnits="objectBoundingBox"><stop offset="0" stop-color="#833ab4"/><stop offset="0.092" stop-color="#9c3495"/><stop offset="0.293" stop-color="#dc2546"/><stop offset="0.392" stop-color="#fd1d1d"/><stop offset="0.559" stop-color="#fc6831"/><stop offset="0.689" stop-color="#fc9b40"/><stop offset="0.752" stop-color="#fcaf45"/><stop offset="0.781" stop-color="#fdb750"/><stop offset="0.866" stop-color="#fecb6a"/><stop offset="0.942" stop-color="#ffd87a"/><stop offset="1" stop-color="#ffdc80"/></linearGradient></defs><g class="b" transform="translate(1010 -259)"><g transform="translate(-1010 259)"><path class="c" d="M23.589,4.293A4.37,4.37,0,0,0,19.707.411a72.489,72.489,0,0,0-15.414,0A4.37,4.37,0,0,0,.411,4.293a72.489,72.489,0,0,0,0,15.414,4.37,4.37,0,0,0,3.882,3.882,72.49,72.49,0,0,0,15.415,0,4.37,4.37,0,0,0,3.882-3.882,72.488,72.488,0,0,0,0-15.414Zm0,0"/><path class="d" d="M22.284,5.161a3.878,3.878,0,0,0-3.445-3.445,64.35,64.35,0,0,0-13.678,0A3.878,3.878,0,0,0,1.716,5.161a64.348,64.348,0,0,0,0,13.678,3.878,3.878,0,0,0,3.445,3.445,64.324,64.324,0,0,0,13.678,0,3.878,3.878,0,0,0,3.445-3.445,64.324,64.324,0,0,0,0-13.678Zm0,0"/><path class="e" d="M.36,19.21q.025.249.051.5a4.37,4.37,0,0,0,3.882,3.882,72.489,72.489,0,0,0,15.414,0,4.37,4.37,0,0,0,3.882-3.882q.027-.249.051-.5Zm0,0"/><path class="f" d="M23.589,19.707A72.552,72.552,0,0,0,24,11.424L18.512,5.938a3.929,3.929,0,0,0-2.863-1.313c-2.419-.087-4.846-.083-7.265,0a3.882,3.882,0,0,0-3.775,3.4c-.064.35-.1.706-.152,1.059v5.819c.028.189.068.376.081.566A4.231,4.231,0,0,0,5.91,18.416L11.492,24a72.554,72.554,0,0,0,8.215-.409,4.37,4.37,0,0,0,3.882-3.882Zm0,0"/><path class="g" d="M23.589,19.707a4.37,4.37,0,0,1-3.882,3.882A72.593,72.593,0,0,1,11.492,24L5.918,18.424a3.908,3.908,0,0,0,2.466.947c2.419.091,4.846.088,7.265,0a3.888,3.888,0,0,0,3.839-3.886c.073-2.323.073-4.652,0-6.975a4.049,4.049,0,0,0-.973-2.569L24,11.424a72.682,72.682,0,0,1-.409,8.283Zm0,0"/><path class="h" d="M14.832,9.4A3.844,3.844,0,1,0,9.4,14.832L18.3,23.726q.706-.062,1.412-.137a4.37,4.37,0,0,0,3.882-3.882q.075-.706.137-1.412Zm0,0"/><path class="i" d="M23.953,14.585,16.8,7.427a.914.914,0,1,0-1.28,1.28l8.31,8.31q.085-1.216.128-2.433Zm0,0"/><path class="j" d="M4.457,9.089c.05-.353.088-.708.152-1.059a3.882,3.882,0,0,1,3.775-3.4c2.419-.083,4.846-.088,7.265,0a3.888,3.888,0,0,1,3.839,3.886q.109,3.485,0,6.975a3.887,3.887,0,0,1-3.839,3.886c-2.419.087-4.846.09-7.265,0a3.955,3.955,0,0,1-3.846-3.9c-.013-.19-.053-.377-.081-.566V9.089ZM12,18.075c1.107,0,2.215.033,3.321-.008a2.7,2.7,0,0,0,2.84-2.831q.075-3.237,0-6.477a2.684,2.684,0,0,0-2.84-2.827q-3.3-.07-6.6,0A2.668,2.668,0,0,0,5.887,8.719Q5.8,12,5.887,15.278a2.686,2.686,0,0,0,2.836,2.789c1.092.041,2.186.008,3.279.008Zm0,0"/><path class="a" d="M4.457,9.089c.05-.353.088-.708.152-1.059a3.882,3.882,0,0,1,3.775-3.4c2.419-.083,4.846-.088,7.265,0a3.888,3.888,0,0,1,3.839,3.886q.109,3.485,0,6.975a3.887,3.887,0,0,1-3.839,3.886c-2.419.087-4.846.09-7.265,0a3.955,3.955,0,0,1-3.846-3.9c-.013-.19-.053-.377-.081-.566V9.089ZM12,18.075c1.107,0,2.215.033,3.321-.008a2.7,2.7,0,0,0,2.84-2.831q.075-3.237,0-6.477a2.684,2.684,0,0,0-2.84-2.827q-3.3-.07-6.6,0A2.668,2.668,0,0,0,5.887,8.719Q5.8,12,5.887,15.278a2.686,2.686,0,0,0,2.836,2.789c1.092.041,2.186.008,3.279.008Zm0,0"/><path class="a" d="M12,8.156A3.844,3.844,0,1,0,15.844,12,3.844,3.844,0,0,0,12,8.156Zm0,6.365A2.521,2.521,0,1,1,14.521,12,2.521,2.521,0,0,1,12,14.521Zm0,0"/><path class="a" d="M16.983,7.981a.915.915,0,1,1-.914-.915A.914.914,0,0,1,16.983,7.981Zm0,0"/></g></g></svg>