<svg xmlns="http://www.w3.org/2000/svg" xmlns:xlink="http://www.w3.org/1999/xlink" width="64" height="64" viewBox="0 0 64 64"><defs><style>.a{fill:#f83636;}.b{clip-path:url(#a);}</style><clipPath id="a"><rect class="a" width="64" height="64"/></clipPath></defs><g class="b"><path class="a" d="M43.945,64H8.731a5.337,5.337,0,0,1-5.313-5.8L6.665,21.4a5.3,5.3,0,0,1,5.313-4.865h3.293V11.067a11.067,11.067,0,1,1,22.133,0v5.467H40.7a1.067,1.067,0,0,1,0,2.133H37.4v4.8a1.067,1.067,0,0,1-2.133,0v-4.8h-14a1.067,1.067,0,1,1,0-2.133h14V11.067a8.933,8.933,0,1,0-17.867,0v12.4a1.067,1.067,0,0,1-2.133,0v-4.8H11.978A3.183,3.183,0,0,0,8.79,21.585l-3.247,36.8a3.2,3.2,0,0,0,3.188,3.481H43.945a3.2,3.2,0,0,0,3.188-3.481l-3.247-36.8A1.067,1.067,0,1,1,46.01,21.4l3.247,36.8A5.337,5.337,0,0,1,43.945,64ZM20.2,54.8H12.471a1.067,1.067,0,1,0,0,2.133H20.2a1.067,1.067,0,1,0,0-2.133Zm0-5.333H12.471a1.067,1.067,0,1,0,0,2.133H20.2a1.067,1.067,0,1,0,0-2.133Z" transform="translate(5.662 0)"/></g></svg>