<svg xmlns="http://www.w3.org/2000/svg" xmlns:xlink="http://www.w3.org/1999/xlink" width="16" height="16" viewBox="0 0 16 16"><defs><style>.a{fill:#fff;}.b{clip-path:url(#a);}</style><clipPath id="a"><rect class="a" width="16" height="16"/></clipPath></defs><g class="b"><g transform="translate(0 0.369)"><path class="a" d="M15.977,6.349A.469.469,0,0,0,15.6,6.03l-4.96-.721L8.42.814a.469.469,0,0,0-.841,0L5.361,5.309.4,6.03a.469.469,0,0,0-.26.8l3.589,3.5-.847,4.94a.469.469,0,0,0,.68.494L8,13.429l4.436,2.332a.469.469,0,0,0,.68-.494l-.847-4.94,3.589-3.5A.469.469,0,0,0,15.977,6.349Z" transform="translate(0 -0.553)"/></g></g></svg>