<svg xmlns="http://www.w3.org/2000/svg" xmlns:xlink="http://www.w3.org/1999/xlink" width="64" height="64" viewBox="0 0 64 64"><defs><style>.a{fill:#f83636;}.b{clip-path:url(#a);}</style><clipPath id="a"><rect class="a" width="64" height="64"/></clipPath></defs><g class="b"><g transform="translate(9.5)"><path class="a" d="M26.063,0A22.5,22.5,0,0,0,6.921,34.332L24.782,63.114A1.875,1.875,0,0,0,26.375,64h.015a1.875,1.875,0,0,0,1.594-.911L45.389,34.028A22.5,22.5,0,0,0,26.063,0ZM42.171,32.1,26.347,58.523,10.108,32.356A18.763,18.763,0,1,1,42.171,32.1Z" transform="translate(-3.563)"/><g transform="translate(11.25 11.25)"><path class="a" d="M19.031,4.219a11.25,11.25,0,1,0,11.25,11.25A11.263,11.263,0,0,0,19.031,4.219Zm0,18.775a7.525,7.525,0,1,1,7.513-7.525A7.531,7.531,0,0,1,19.031,22.994Z" transform="translate(-7.781 -4.219)"/></g></g></g></svg>