<svg xmlns="http://www.w3.org/2000/svg" xmlns:xlink="http://www.w3.org/1999/xlink" width="40" height="40" viewBox="0 0 40 40"><defs><style>.a{fill:#f83636;}.b{clip-path:url(#a);}</style><clipPath id="a"><rect class="a" width="40" height="40"/></clipPath></defs><g class="b"><g transform="translate(3.756 0)"><path class="a" d="M13.437,8.7a.937.937,0,0,0-.937.937v17.7a.937.937,0,1,0,1.874,0V9.632A.937.937,0,0,0,13.437,8.7Zm0,0" transform="translate(8.334 5.797)"/><path class="a" d="M6.8,8.7a.937.937,0,0,0-.937.937v17.7a.937.937,0,1,0,1.874,0V9.632A.937.937,0,0,0,6.8,8.7Zm0,0" transform="translate(3.912 5.797)"/><path class="a" d="M2.66,11.908v23.08a5.168,5.168,0,0,0,1.374,3.564A4.613,4.613,0,0,0,7.382,40H25.105a4.612,4.612,0,0,0,3.347-1.447,5.168,5.168,0,0,0,1.374-3.564V11.908a3.578,3.578,0,0,0-.918-7.037h-4.8V3.7A3.68,3.68,0,0,0,20.4,0H12.084a3.68,3.68,0,0,0-3.71,3.7V4.871h-4.8a3.578,3.578,0,0,0-.918,7.037ZM25.105,38.126H7.382a2.967,2.967,0,0,1-2.848-3.138v-23H27.953v23a2.967,2.967,0,0,1-2.848,3.138ZM10.248,3.7a1.8,1.8,0,0,1,1.836-1.827H20.4A1.8,1.8,0,0,1,22.239,3.7V4.871H10.248ZM3.578,6.745h25.33a1.686,1.686,0,0,1,0,3.372H3.578a1.686,1.686,0,1,1,0-3.372Zm0,0" transform="translate(0 0)"/><path class="a" d="M10.121,8.7a.937.937,0,0,0-.937.937v17.7a.937.937,0,1,0,1.874,0V9.632A.937.937,0,0,0,10.121,8.7Zm0,0" transform="translate(6.123 5.797)"/></g></g></svg>