<svg xmlns="http://www.w3.org/2000/svg" xmlns:xlink="http://www.w3.org/1999/xlink" width="64" height="64" viewBox="0 0 64 64"><defs><style>.a{fill:#f83636;}.b{clip-path:url(#a);}.c{fill:none;}</style><clipPath id="a"><rect class="a" width="64" height="64"/></clipPath></defs><g class="b"><g transform="translate(1.067 1.067)"><circle class="c" cx="12.8" cy="12.8" r="12.8" transform="translate(18.133)"/><path class="c" d="M31.333,11.6A30.933,30.933,0,0,0,.4,42.533c0,.363.011.715.032,1.067h61.8c.021-.352.032-.7.032-1.067A30.933,30.933,0,0,0,31.333,11.6Z" transform="translate(-0.4 18.267)"/></g><path class="a" d="M20.667,27.733A13.867,13.867,0,1,1,34.533,13.867,13.867,13.867,0,0,1,20.667,27.733Zm0-25.6A11.733,11.733,0,1,0,32.4,13.867,11.733,11.733,0,0,0,20.667,2.133Z" transform="translate(11.333)"/><path class="a" d="M62.9,45.333H1.1a1.067,1.067,0,0,1-1.067-1C.012,43.958,0,43.585,0,43.2a32,32,0,1,1,64,0c0,.385-.012.758-.034,1.133A1.067,1.067,0,0,1,62.9,45.333ZM2.133,43.2H61.867a29.867,29.867,0,1,0-59.733,0Z" transform="translate(0 18.667)"/><path class="a" d="M62.881,25.333H1.079a1.067,1.067,0,1,1,0-2.133h61.8a1.067,1.067,0,0,1,0,2.133Z" transform="translate(0.02 38.667)"/></g></svg>