<svg xmlns="http://www.w3.org/2000/svg" xmlns:xlink="http://www.w3.org/1999/xlink" width="40" height="40" viewBox="0 0 40 40"><defs><style>.a{fill:#fff;}.b{clip-path:url(#a);}.c{fill:#ff3636;}.d{fill:#f40000;}</style><clipPath id="a"><rect class="a" width="40" height="40"/></clipPath></defs><g class="b"><g transform="translate(0 2.227)"><path class="c" d="M29.449,1.336h-.07c-5.158,0-8.042,3.775-9.379,6.331-1.36-2.556-4.22-6.331-9.379-6.331h-.094C4.947,1.383.3,6.143.015,12.169c-.352,7.386,5.542,12.357,14.358,19.86,1.524,1.313,3.142,2.7,4.854,4.174l.774.68.774-.68c1.688-1.477,3.329-2.861,4.854-4.174,8.816-7.5,14.709-12.474,14.357-19.86C39.7,6.143,35.03,1.383,29.449,1.336Z" transform="translate(0 -1.336)"/><path class="d" d="M31.985,12.169c.352,7.386-5.541,12.357-14.357,19.86-1.524,1.313-3.165,2.7-4.854,4.174l-.774.68V7.667c1.336-2.556,4.22-6.331,9.379-6.331h.07C27.03,1.383,31.7,6.143,31.985,12.169Z" transform="translate(8 -1.336)"/></g></g></svg>