<svg xmlns="http://www.w3.org/2000/svg" xmlns:xlink="http://www.w3.org/1999/xlink" width="64" height="64" viewBox="0 0 64 64"><defs><style>.a{fill:#f83636;}.b{clip-path:url(#a);}</style><clipPath id="a"><rect class="a" width="64" height="64"/></clipPath></defs><g class="b"><path class="a" d="M32,56.94a3.753,3.753,0,0,1-2.474-.93c-2.585-2.261-5.078-4.385-7.277-6.259l-.011-.01C15.79,44.246,10.222,39.5,6.348,34.827,2.017,29.6,0,24.646,0,19.234A20,20,0,0,1,5.077,5.572,17.21,17.21,0,0,1,17.879,0,16.1,16.1,0,0,1,27.935,3.471,20.573,20.573,0,0,1,32,7.716a20.575,20.575,0,0,1,4.066-4.245A16.1,16.1,0,0,1,46.122,0a17.211,17.211,0,0,1,12.8,5.572A20,20,0,0,1,64,19.234c0,5.413-2.017,10.367-6.347,15.592C53.779,39.5,48.211,44.246,41.765,49.74c-2.2,1.877-4.7,4-7.291,6.271A3.756,3.756,0,0,1,32,56.939ZM17.879,3.749A13.5,13.5,0,0,0,7.833,8.113,16.272,16.272,0,0,0,3.748,19.234c0,4.552,1.692,8.624,5.485,13.2,3.667,4.424,9.12,9.072,15.435,14.453l.012.01c2.208,1.881,4.71,4.014,7.314,6.292,2.62-2.282,5.126-4.418,7.338-6.3C45.647,41.505,51.1,36.859,54.767,32.435c3.793-4.577,5.485-8.648,5.485-13.2A16.272,16.272,0,0,0,56.167,8.113,13.5,13.5,0,0,0,46.122,3.749a12.434,12.434,0,0,0-7.763,2.688,18.192,18.192,0,0,0-4.326,5.006,2.366,2.366,0,0,1-4.065,0,18.175,18.175,0,0,0-4.326-5.006,12.433,12.433,0,0,0-7.762-2.688Zm0,0" transform="translate(0 3.53)"/></g></svg>