<svg xmlns="http://www.w3.org/2000/svg" xmlns:xlink="http://www.w3.org/1999/xlink" width="32" height="32" viewBox="0 0 32 32"><defs><style>.a{fill:#fff;}.b{clip-path:url(#a);}</style><clipPath id="a"><rect class="a" width="32" height="32"/></clipPath></defs><g class="b"><path class="a" d="M23.671,32H6.064a2.668,2.668,0,0,1-2.656-2.9L5.031,10.7A2.652,2.652,0,0,1,7.688,8.267H9.334V5.533a5.533,5.533,0,1,1,11.067,0V8.267h1.647a.533.533,0,0,1,0,1.067H20.4v2.4a.533.533,0,1,1-1.067,0v-2.4h-7a.533.533,0,1,1,0-1.067h7V5.533a4.467,4.467,0,1,0-8.933,0v6.2a.533.533,0,0,1-1.067,0v-2.4H7.688a1.591,1.591,0,0,0-1.594,1.459L4.47,29.193a1.6,1.6,0,0,0,1.594,1.741H23.671a1.6,1.6,0,0,0,1.594-1.741l-1.624-18.4A.533.533,0,1,1,24.7,10.7l1.624,18.4A2.668,2.668,0,0,1,23.671,32ZM11.8,27.4H7.934a.533.533,0,1,0,0,1.067H11.8a.533.533,0,1,0,0-1.067Zm0-2.667H7.934a.533.533,0,1,0,0,1.067H11.8a.533.533,0,1,0,0-1.067Z" transform="translate(1.132 0)"/></g></svg>