<svg xmlns="http://www.w3.org/2000/svg" xmlns:xlink="http://www.w3.org/1999/xlink" width="56" height="56" viewBox="0 0 56 56"><defs><style>.a{fill:#f83636;}.b{clip-path:url(#a);}</style><clipPath id="a"><rect class="a" width="56" height="56"/></clipPath></defs><g class="b"><g transform="translate(0 0.028)"><path class="a" d="M55.609,20.1,49.353,3.834A5.967,5.967,0,0,0,41.638.413L41.5.466,10.24,13.427a5.939,5.939,0,0,0-3.3,7.6l.86,2.295H5.828A5.834,5.834,0,0,0,0,29.149V50.128a5.834,5.834,0,0,0,5.828,5.827H45.455a5.834,5.834,0,0,0,5.827-5.827V29.149a5.729,5.729,0,0,0-.084-.944l1.083-.438A5.99,5.99,0,0,0,55.609,20.1ZM5.828,25.186H45.455a3.957,3.957,0,0,1,3.939,3.73H1.888A3.957,3.957,0,0,1,5.828,25.186ZM15.2,19.57l6.232-3.117,1.281,3.2L16.48,22.773ZM49.417,50.128a3.967,3.967,0,0,1-3.963,3.963H5.828a3.967,3.967,0,0,1-3.963-3.963V38.24H49.417Zm0-13.753H1.865V30.781H49.417Zm2.164-10.331-.974.394a5.83,5.83,0,0,0-5.152-3.117h-25.9l4.76-2.38a.932.932,0,0,0,.449-1.18l-1.978-4.942a.932.932,0,0,0-1.212-.52q-.036.015-.071.032L13.6,18.287a.933.933,0,0,0-.448,1.18l1.542,3.855H9.79l-1.1-2.945a4.082,4.082,0,0,1,2.268-5.221L42.218,2.2A4.1,4.1,0,0,1,47.572,4.41q.02.049.039.1l6.256,16.267A4.117,4.117,0,0,1,51.581,26.044Z" transform="translate(0 -0.012)"/><path class="a" d="M15.966,28.027a5.6,5.6,0,0,0,5.621,0,5.594,5.594,0,1,0,0-9.675,5.594,5.594,0,1,0-5.621,9.675Zm7.18-8.339a3.73,3.73,0,1,1,0,7A5.572,5.572,0,0,0,23.145,19.687Zm-1.559,1.061a3.661,3.661,0,0,1,0,4.882A3.661,3.661,0,0,1,21.586,20.748Zm-2.8-1.289a3.69,3.69,0,0,1,1.238.228,5.572,5.572,0,0,0,0,7,3.723,3.723,0,1,1-1.238-7.232Z" transform="translate(17.574 23.43)"/><path class="a" d="M4.559,1.5H6.424v9.734H4.559Z" transform="matrix(-0.406, -0.914, 0.914, -0.406, 40.566, 25.724)"/><path class="a" d="M0,0H14.151V1.864H0Z" transform="translate(33.393 17.271) rotate(-24.776)"/></g></g></svg>