<svg xmlns="http://www.w3.org/2000/svg" xmlns:xlink="http://www.w3.org/1999/xlink" width="24" height="24" viewBox="0 0 24 24"><defs><style>.a{fill:#2f4858;}.b{clip-path:url(#a);}</style><clipPath id="a"><rect class="a" width="24" height="24" transform="translate(-1497 -742)"/></clipPath></defs><g class="b" transform="translate(1497 742)"><g transform="translate(-1497.047 -742.047)"><path class="a" d="M23.417,18.562l-4.858-3.24a1.418,1.418,0,0,0-1.9.308L15.246,17.45a.6.6,0,0,1-.775.163l-.269-.148a16.267,16.267,0,0,1-4.239-3.33A16.333,16.333,0,0,1,6.632,9.9l-.148-.269a.606.606,0,0,1,.16-.778L8.462,7.434a1.419,1.419,0,0,0,.309-1.9L5.532.677A1.41,1.41,0,0,0,3.63.249L1.6,1.47a2.865,2.865,0,0,0-1.307,1.7C-.439,5.831.111,10.43,6.887,17.207c5.39,5.39,9.4,6.839,12.161,6.839a7.086,7.086,0,0,0,1.88-.246,2.863,2.863,0,0,0,1.7-1.307l1.221-2.03A1.411,1.411,0,0,0,23.417,18.562Zm-.262,1.492-1.219,2.031a2.067,2.067,0,0,1-1.22.945c-2.46.676-6.759.116-13.264-6.389S.389,5.838,1.064,3.377a2.07,2.07,0,0,1,.947-1.221L4.042.937a.612.612,0,0,1,.825.186l1.76,2.642L8.1,5.98A.616.616,0,0,1,7.97,6.8L6.152,8.218a1.4,1.4,0,0,0-.371,1.8l.144.262A16.966,16.966,0,0,0,9.392,14.7a16.984,16.984,0,0,0,4.423,3.466l.263.145a1.4,1.4,0,0,0,1.8-.371l1.415-1.819a.616.616,0,0,1,.824-.134l4.857,3.24A.611.611,0,0,1,23.156,20.053Z"/><path class="a" d="M13.646,4.049a6.807,6.807,0,0,1,6.8,6.8.4.4,0,1,0,.8,0,7.607,7.607,0,0,0-7.6-7.6.4.4,0,0,0,0,.8Z"/><path class="a" d="M13.646,6.449a4.4,4.4,0,0,1,4.4,4.4.4.4,0,1,0,.8,0,5.205,5.205,0,0,0-5.2-5.2.4.4,0,0,0,0,.8Z"/><path class="a" d="M13.646,8.848a2,2,0,0,1,2,2,.4.4,0,1,0,.8,0,2.8,2.8,0,0,0-2.8-2.8.4.4,0,1,0,0,.8Z"/></g></g></svg>