<svg xmlns="http://www.w3.org/2000/svg" xmlns:xlink="http://www.w3.org/1999/xlink" width="24" height="24" viewBox="0 0 24 24"><defs><style>.a{fill:#fff;}.b{clip-path:url(#a);}.c{fill:url(#b);}.d{fill:url(#c);}.e{fill:url(#d);}.f{fill:url(#e);}.g{fill:#030303;}</style><clipPath id="a"><rect class="a" width="24" height="24" transform="translate(-1391 303)"/></clipPath><linearGradient id="b" x1="0.332" y1="0.141" x2="0.585" y2="0.682" gradientUnits="objectBoundingBox"><stop offset="0" stop-color="#fffc00"/><stop offset="1" stop-color="#ffe600"/></linearGradient><linearGradient id="c" x1="0.738" y1="0.628" x2="-0.899" y2="-0.25" gradientUnits="objectBoundingBox"><stop offset="0" stop-color="#ffe600" stop-opacity="0"/><stop offset="1" stop-color="#ffce00"/></linearGradient><linearGradient id="d" x1="0.5" y1="0.27" x2="0.5" y2="0.926" xlink:href="#c"/><linearGradient id="e" x1="0.702" y1="0.924" x2="0.467" y2="0.496" xlink:href="#c"/></defs><g class="b" transform="translate(1391 -303)"><g transform="translate(-1391 303)"><path class="c" d="M19.707,23.589a72.49,72.49,0,0,1-15.415,0A4.37,4.37,0,0,1,.411,19.707a72.489,72.489,0,0,1,0-15.414A4.37,4.37,0,0,1,4.293.411a72.489,72.489,0,0,1,15.414,0,4.37,4.37,0,0,1,3.882,3.882,72.489,72.489,0,0,1,0,15.414,4.37,4.37,0,0,1-3.882,3.882Zm0,0"/><path class="d" d="M22.284,5.161a3.878,3.878,0,0,0-3.445-3.445,64.349,64.349,0,0,0-13.678,0A3.878,3.878,0,0,0,1.716,5.161a64.348,64.348,0,0,0,0,13.678,3.878,3.878,0,0,0,3.445,3.445,64.324,64.324,0,0,0,13.678,0,3.878,3.878,0,0,0,3.445-3.445,64.324,64.324,0,0,0,0-13.678Zm0,0"/><path class="e" d="M.36,19.21q.025.249.051.5a4.37,4.37,0,0,0,3.882,3.882,72.489,72.489,0,0,0,15.414,0,4.37,4.37,0,0,0,3.882-3.882q.027-.249.051-.5Zm0,0"/><path class="f" d="M23.589,19.707q.275-2.575.365-5.154L15.308,5.906a4.341,4.341,0,0,0-3.155-1.345h-.039l-.274,0A4.212,4.212,0,0,0,7.93,7.087a7.917,7.917,0,0,0-.2,3.2c.008.127.016.258.024.385a.632.632,0,0,1-.308.067,1.771,1.771,0,0,1-.728-.195.586.586,0,0,0-.251-.051.786.786,0,0,0-.769.529c-.032.166.014.389.326.609.052.083,1.382,1.415,1.478,1.49a4.616,4.616,0,0,1-3.142,2.616.328.328,0,0,0-.274.342.44.44,0,0,0,.035.147.742.742,0,0,0,.282.31L11.868,24a72.572,72.572,0,0,0,7.839-.41,4.37,4.37,0,0,0,3.882-3.882Zm0,0"/><path class="a" d="M12.1,19.274c-.04,0-.079,0-.118,0h0c-.025,0-.051,0-.077,0a3.391,3.391,0,0,1-2.078-.82,3.032,3.032,0,0,0-1.2-.613,3.883,3.883,0,0,0-.632-.053,4.312,4.312,0,0,0-.875.1,1.923,1.923,0,0,1-.326.047.205.205,0,0,1-.227-.162c-.036-.124-.063-.244-.088-.359-.065-.3-.111-.482-.236-.5-1.456-.225-1.873-.532-1.966-.749a.276.276,0,0,1-.022-.093.164.164,0,0,1,.137-.171,4.826,4.826,0,0,0,3.284-2.754l0-.008a.852.852,0,0,0,.08-.716c-.154-.362-.655-.521-.986-.627-.081-.026-.158-.05-.219-.074-.662-.262-.717-.53-.691-.667a.625.625,0,0,1,.608-.4.425.425,0,0,1,.181.036,1.928,1.928,0,0,0,.8.21.658.658,0,0,0,.477-.152c-.008-.152-.018-.31-.029-.473A7.835,7.835,0,0,1,8.08,7.154a4.05,4.05,0,0,1,3.76-2.425l.276,0h.037A4.057,4.057,0,0,1,15.92,7.152a7.837,7.837,0,0,1,.185,3.125l0,.046c-.009.147-.018.291-.026.428a.638.638,0,0,0,.435.151h0a2,2,0,0,0,.752-.209.57.57,0,0,1,.234-.046.711.711,0,0,1,.269.051l0,0a.494.494,0,0,1,.375.4c0,.155-.115.388-.7.618-.06.024-.137.048-.219.074-.332.105-.833.264-.986.626a.852.852,0,0,0,.08.716l0,.008A4.826,4.826,0,0,0,19.613,15.9a.164.164,0,0,1,.137.171.275.275,0,0,1-.023.094c-.092.216-.509.522-1.966.748-.119.018-.165.173-.236.5-.026.118-.052.235-.088.357a.194.194,0,0,1-.208.156H17.21a1.809,1.809,0,0,1-.326-.041,4.358,4.358,0,0,0-.875-.093,3.886,3.886,0,0,0-.632.053,3.025,3.025,0,0,0-1.2.613,3.391,3.391,0,0,1-2.079.82Zm0,0"/><path class="g" d="M12.153,4.89A3.892,3.892,0,0,1,15.77,7.219a7.768,7.768,0,0,1,.171,3.048c-.01.165-.021.324-.029.477l0,.066.044.049a.779.779,0,0,0,.552.207h.012a2.151,2.151,0,0,0,.816-.224.4.4,0,0,1,.164-.03.549.549,0,0,1,.207.039l.009,0c.156.055.267.158.269.251,0,.053-.039.243-.593.462-.054.021-.125.044-.208.07-.36.114-.9.287-1.088.719a1.007,1.007,0,0,0,.084.853,4.962,4.962,0,0,0,3.409,2.851.109.109,0,0,1-.01.037c-.039.092-.289.411-1.84.651-.243.038-.3.309-.372.626-.025.113-.05.227-.085.346-.01.036-.012.038-.051.038H17.21a1.711,1.711,0,0,1-.295-.038,4.538,4.538,0,0,0-.906-.1,4.039,4.039,0,0,0-.658.055,3.15,3.15,0,0,0-1.27.641,3.257,3.257,0,0,1-1.983.79l-.112,0h-.02l-.065,0a3.258,3.258,0,0,1-1.983-.789,3.148,3.148,0,0,0-1.27-.641,4.041,4.041,0,0,0-.658-.055,4.471,4.471,0,0,0-.907.1,1.835,1.835,0,0,1-.294.044c-.056,0-.057,0-.069-.044-.035-.118-.06-.235-.085-.348-.069-.317-.129-.59-.372-.628-1.552-.24-1.8-.559-1.84-.652a.107.107,0,0,1-.009-.038,4.96,4.96,0,0,0,3.408-2.851,1.007,1.007,0,0,0,.084-.853c-.183-.432-.728-.6-1.088-.719-.083-.026-.154-.049-.208-.07-.468-.185-.612-.371-.59-.484.025-.13.25-.262.447-.262a.269.269,0,0,1,.112.021,2.091,2.091,0,0,0,.867.226.8.8,0,0,0,.6-.209l.044-.049,0-.065c-.008-.153-.018-.312-.029-.477A7.764,7.764,0,0,1,8.23,7.221a3.887,3.887,0,0,1,3.61-2.328l.277,0h.036m0-.328h-.039l-.274,0A4.212,4.212,0,0,0,7.93,7.087a7.916,7.916,0,0,0-.2,3.2c.008.127.016.258.024.385a.629.629,0,0,1-.308.067,1.768,1.768,0,0,1-.728-.195.588.588,0,0,0-.251-.051.785.785,0,0,0-.769.529c-.043.228.059.561.792.85.066.026.146.051.23.078.3.1.761.241.885.534a.7.7,0,0,1-.076.58l-.007.016a4.653,4.653,0,0,1-3.16,2.656.328.328,0,0,0-.274.342.44.44,0,0,0,.035.147c.161.377.842.654,2.082.846a1.549,1.549,0,0,1,.111.375c.026.119.053.242.091.371a.367.367,0,0,0,.384.279,1.993,1.993,0,0,0,.358-.05,4.186,4.186,0,0,1,.844-.1A3.7,3.7,0,0,1,8.6,18a2.868,2.868,0,0,1,1.134.585,3.572,3.572,0,0,0,2.173.85c.027,0,.053,0,.08,0s.073,0,.116,0a3.571,3.571,0,0,0,2.173-.85A2.87,2.87,0,0,1,15.4,18a3.7,3.7,0,0,1,.6-.051,4.21,4.21,0,0,1,.844.09,1.975,1.975,0,0,0,.357.044h.018a.357.357,0,0,0,.366-.274c.038-.127.064-.246.091-.367a1.529,1.529,0,0,1,.111-.373c1.24-.193,1.921-.469,2.082-.844a.44.44,0,0,0,.036-.148.328.328,0,0,0-.274-.342,4.653,4.653,0,0,1-3.16-2.656l-.007-.016a.7.7,0,0,1-.076-.58c.124-.293.582-.438.885-.534.085-.027.164-.052.23-.078.536-.212.806-.472.8-.773a.642.642,0,0,0-.482-.552h0a.881.881,0,0,0-.33-.063.73.73,0,0,0-.3.061,1.851,1.851,0,0,1-.682.194.609.609,0,0,1-.266-.066c.006-.109.013-.221.021-.339l0-.046a7.916,7.916,0,0,0-.2-3.2,4.219,4.219,0,0,0-3.917-2.524Zm0,0"/></g></g></svg>