<svg xmlns="http://www.w3.org/2000/svg" xmlns:xlink="http://www.w3.org/1999/xlink" width="24" height="24" viewBox="0 0 24 24"><defs><style>.a{fill:#fff;}.b{clip-path:url(#a);}.c{fill:url(#b);}.d{fill:url(#c);}.e{fill:url(#d);}.f{fill:url(#e);}</style><clipPath id="a"><rect class="a" width="24" height="24" transform="translate(-1051 259)"/></clipPath><linearGradient id="b" x1="0.332" y1="0.141" x2="0.585" y2="0.682" gradientUnits="objectBoundingBox"><stop offset="0" stop-color="#00c3ff"/><stop offset="1" stop-color="#00b0ed"/></linearGradient><linearGradient id="c" x1="0.738" y1="0.628" x2="-0.899" y2="-0.25" gradientUnits="objectBoundingBox"><stop offset="0" stop-color="#00b0ed" stop-opacity="0"/><stop offset="1" stop-color="#00a2ce"/></linearGradient><linearGradient id="d" x1="0.5" y1="0.27" x2="0.5" y2="0.926" xlink:href="#c"/><linearGradient id="e" x1="0.946" y1="0.922" x2="0.342" y2="0.273" xlink:href="#c"/></defs><g class="b" transform="translate(1051 -259)"><g transform="translate(-1051 259)"><path class="c" d="M19.707,23.589a72.49,72.49,0,0,1-15.415,0A4.37,4.37,0,0,1,.411,19.707a72.489,72.489,0,0,1,0-15.414A4.37,4.37,0,0,1,4.293.411a72.489,72.489,0,0,1,15.414,0,4.37,4.37,0,0,1,3.882,3.882,72.489,72.489,0,0,1,0,15.414,4.37,4.37,0,0,1-3.882,3.882Zm0,0"/><path class="d" d="M22.284,5.161a3.878,3.878,0,0,0-3.445-3.445,64.349,64.349,0,0,0-13.678,0A3.878,3.878,0,0,0,1.716,5.161a64.348,64.348,0,0,0,0,13.678,3.878,3.878,0,0,0,3.445,3.445,64.324,64.324,0,0,0,13.678,0,3.878,3.878,0,0,0,3.445-3.445,64.324,64.324,0,0,0,0-13.678Zm0,0"/><path class="e" d="M.36,19.21q.025.249.051.5a4.37,4.37,0,0,0,3.882,3.882,72.489,72.489,0,0,0,15.414,0,4.37,4.37,0,0,0,3.882-3.882q.027-.249.051-.5Zm0,0"/><path class="f" d="M23.995,11.157,19.013,6.175a5.945,5.945,0,0,1-1.421.594,4.065,4.065,0,0,1-.5.1,3.094,3.094,0,0,0-5.308,2.16c0,.062,0,.123.006.183a2.983,2.983,0,0,0,.056.435A8.474,8.474,0,0,1,6.6,7.555h0L5.56,6.512a3.078,3.078,0,0,0,.575,3.755,3.431,3.431,0,0,0,.261.261l.023.025a3.031,3.031,0,0,1-1.357-.377,3,3,0,0,0,1,2.265l.878.885a1.708,1.708,0,0,1-.769-.073,2.956,2.956,0,0,0,.885,1.391l1.23,1.236a6.366,6.366,0,0,1-3.729.83L12.022,24a72.569,72.569,0,0,0,7.685-.411,4.37,4.37,0,0,0,3.882-3.882,72.6,72.6,0,0,0,.406-8.551Zm0,0"/><path class="a" d="M19.438,7.377a5.6,5.6,0,0,1-1.6.443l-.007-.037a2.969,2.969,0,0,0,1.177-1.607,5.945,5.945,0,0,1-1.421.594,4.1,4.1,0,0,1-.5.1,3.094,3.094,0,0,0-5.308,2.16c0,.062,0,.123.006.183a2.983,2.983,0,0,0,.056.435A8.646,8.646,0,0,1,5.56,6.512,3.06,3.06,0,0,0,6.5,10.557a3.226,3.226,0,0,1-1.436-.381,3.094,3.094,0,0,0,2.52,3.048,2.927,2.927,0,0,1-1.407.029,2.984,2.984,0,0,0,2.814,2.14,6.164,6.164,0,0,1-4.428,1.318,8.742,8.742,0,0,0,13.409-7.39q0-.09,0-.181c0-.036,0-.071,0-.107s0-.05,0-.075a5.47,5.47,0,0,0,1.468-1.581Zm0,0"/></g></g></svg>